<svg width="56" height="56" viewBox="0 0 56 56" fill="none" xmlns="http://www.w3.org/2000/svg">
<circle cx="27.9453" cy="11.4297" r="4.97656" stroke="#F8F8F8" stroke-width="0.875"/>
<mask id="path-2-inside-1_13_466" fill="white">
<path d="M46.2321 38.2573C44.3885 42.0631 41.3869 45.1872 37.6578 47.1814C33.9287 49.1757 29.6638 49.9376 25.4749 49.3579C21.286 48.7782 17.3883 46.8867 14.341 43.9546C11.2937 41.0226 9.25331 37.2007 8.51257 33.0372C7.77184 28.8738 8.36881 24.5827 10.2179 20.7795C12.0669 16.9763 15.073 13.8565 18.8049 11.8676C22.5368 9.87867 26.8028 9.12283 30.9909 9.70852C35.179 10.2942 39.0739 12.1913 42.1171 15.1277L28.2188 29.5312L46.2321 38.2573Z"/>
</mask>
<path d="M46.2321 38.2573C44.3885 42.0631 41.3869 45.1872 37.6578 47.1814C33.9287 49.1757 29.6638 49.9376 25.4749 49.3579C21.286 48.7782 17.3883 46.8867 14.341 43.9546C11.2937 41.0226 9.25331 37.2007 8.51257 33.0372C7.77184 28.8738 8.36881 24.5827 10.2179 20.7795C12.0669 16.9763 15.073 13.8565 18.8049 11.8676C22.5368 9.87867 26.8028 9.12283 30.9909 9.70852C35.179 10.2942 39.0739 12.1913 42.1171 15.1277L28.2188 29.5312L46.2321 38.2573Z" stroke="white" stroke-width="0.7" mask="url(#path-2-inside-1_13_466)"/>
<path d="M46.3853 36.0585C44.6827 39.5731 41.9107 42.4582 38.4669 44.2999C35.0231 46.1416 31.0845 46.8452 27.2161 46.3099C23.3476 45.7745 19.7481 44.0277 16.9339 41.3199C14.1197 38.6122 12.2355 35.0827 11.5514 31.2378C10.8673 27.3928 11.4186 23.43 13.1262 19.9178C14.8338 16.4056 17.6099 13.5244 21.0563 11.6877C24.5028 9.85089 28.4424 9.15288 32.3101 9.69377C36.1777 10.2346 39.7747 11.9866 42.5851 14.6984L29.75 28L46.3853 36.0585Z" fill="#D5A2FE"/>
<circle cx="11.9766" cy="22.0391" r="5.19531" stroke="#F8F8F8" stroke-width="1.3125"/>
</svg>
